<mxfile host="Electron" modified="2024-01-31T05:05:58.769Z" agent="Mozilla/5.0 (Windows NT 10.0; Win64; x64) AppleWebKit/537.36 (KHTML, like Gecko) draw.io/23.0.2 Chrome/120.0.6099.109 Electron/28.1.0 Safari/537.36" etag="1McD98krz0HfHNAmmWnL" version="23.0.2" type="device">
  <diagram name="第 1 页" id="FVH1DVoAs45WlOHJc8Bu">
    <mxGraphModel dx="1425" dy="852" grid="1" gridSize="10" guides="1" tooltips="1" connect="1" arrows="1" fold="1" page="1" pageScale="1" pageWidth="827" pageHeight="1169" math="0" shadow="0">
      <root>
        <mxCell id="0" />
        <mxCell id="1" parent="0" />
        <mxCell id="RkB0XEq5HXLJtmsmXvaN-1" value="" style="group" parent="1" vertex="1" connectable="0">
          <mxGeometry x="280" y="160" width="200" height="40" as="geometry" />
        </mxCell>
        <mxCell id="RkB0XEq5HXLJtmsmXvaN-2" value="" style="rounded=0;whiteSpace=wrap;html=1;" parent="RkB0XEq5HXLJtmsmXvaN-1" vertex="1">
          <mxGeometry width="200" height="40" as="geometry" />
        </mxCell>
        <mxCell id="RkB0XEq5HXLJtmsmXvaN-3" value="5" style="ellipse;whiteSpace=wrap;html=1;fontFamily=Times New Roman;fontSize=19;fillColor=none;strokeColor=none;" parent="RkB0XEq5HXLJtmsmXvaN-1" vertex="1">
          <mxGeometry width="40" height="40" as="geometry" />
        </mxCell>
        <mxCell id="RkB0XEq5HXLJtmsmXvaN-4" value="3" style="ellipse;whiteSpace=wrap;html=1;fontFamily=Times New Roman;fontSize=19;fillColor=none;strokeColor=none;" parent="RkB0XEq5HXLJtmsmXvaN-1" vertex="1">
          <mxGeometry x="40" width="40" height="40" as="geometry" />
        </mxCell>
        <mxCell id="RkB0XEq5HXLJtmsmXvaN-5" value="8" style="ellipse;whiteSpace=wrap;html=1;fontFamily=Times New Roman;fontSize=19;fillColor=none;strokeColor=none;" parent="RkB0XEq5HXLJtmsmXvaN-1" vertex="1">
          <mxGeometry x="80" width="40" height="40" as="geometry" />
        </mxCell>
        <mxCell id="RkB0XEq5HXLJtmsmXvaN-6" value="2" style="ellipse;whiteSpace=wrap;html=1;fontFamily=Times New Roman;fontSize=19;fillColor=none;strokeColor=none;" parent="RkB0XEq5HXLJtmsmXvaN-1" vertex="1">
          <mxGeometry x="120" width="40" height="40" as="geometry" />
        </mxCell>
        <mxCell id="RkB0XEq5HXLJtmsmXvaN-7" value="1" style="ellipse;whiteSpace=wrap;html=1;fontFamily=Times New Roman;fontSize=19;fillColor=none;strokeColor=none;" parent="RkB0XEq5HXLJtmsmXvaN-1" vertex="1">
          <mxGeometry x="160" width="40" height="40" as="geometry" />
        </mxCell>
        <mxCell id="RkB0XEq5HXLJtmsmXvaN-8" value="" style="group" parent="1" vertex="1" connectable="0">
          <mxGeometry x="280" y="230" width="200" height="40" as="geometry" />
        </mxCell>
        <mxCell id="RkB0XEq5HXLJtmsmXvaN-9" value="" style="rounded=0;whiteSpace=wrap;html=1;" parent="RkB0XEq5HXLJtmsmXvaN-8" vertex="1">
          <mxGeometry width="200" height="40" as="geometry" />
        </mxCell>
        <mxCell id="RkB0XEq5HXLJtmsmXvaN-10" value="1" style="ellipse;whiteSpace=wrap;html=1;fontFamily=Times New Roman;fontSize=19;fillColor=none;strokeColor=none;" parent="RkB0XEq5HXLJtmsmXvaN-8" vertex="1">
          <mxGeometry width="40" height="40" as="geometry" />
        </mxCell>
        <mxCell id="RkB0XEq5HXLJtmsmXvaN-11" value="3" style="ellipse;whiteSpace=wrap;html=1;fontFamily=Times New Roman;fontSize=19;fillColor=none;strokeColor=none;" parent="RkB0XEq5HXLJtmsmXvaN-8" vertex="1">
          <mxGeometry x="40" width="40" height="40" as="geometry" />
        </mxCell>
        <mxCell id="RkB0XEq5HXLJtmsmXvaN-12" value="8" style="ellipse;whiteSpace=wrap;html=1;fontFamily=Times New Roman;fontSize=19;fillColor=none;strokeColor=none;" parent="RkB0XEq5HXLJtmsmXvaN-8" vertex="1">
          <mxGeometry x="80" width="40" height="40" as="geometry" />
        </mxCell>
        <mxCell id="RkB0XEq5HXLJtmsmXvaN-13" value="2" style="ellipse;whiteSpace=wrap;html=1;fontFamily=Times New Roman;fontSize=19;fillColor=none;strokeColor=none;" parent="RkB0XEq5HXLJtmsmXvaN-8" vertex="1">
          <mxGeometry x="120" width="40" height="40" as="geometry" />
        </mxCell>
        <mxCell id="RkB0XEq5HXLJtmsmXvaN-15" value="" style="group" parent="1" vertex="1" connectable="0">
          <mxGeometry x="280" y="300" width="200" height="40" as="geometry" />
        </mxCell>
        <mxCell id="RkB0XEq5HXLJtmsmXvaN-16" value="" style="rounded=0;whiteSpace=wrap;html=1;" parent="RkB0XEq5HXLJtmsmXvaN-15" vertex="1">
          <mxGeometry width="200" height="40" as="geometry" />
        </mxCell>
        <mxCell id="RkB0XEq5HXLJtmsmXvaN-17" value="1" style="ellipse;whiteSpace=wrap;html=1;fontFamily=Times New Roman;fontSize=19;fillColor=none;strokeColor=none;" parent="RkB0XEq5HXLJtmsmXvaN-15" vertex="1">
          <mxGeometry width="40" height="40" as="geometry" />
        </mxCell>
        <mxCell id="RkB0XEq5HXLJtmsmXvaN-18" value="3" style="ellipse;whiteSpace=wrap;html=1;fontFamily=Times New Roman;fontSize=19;fillColor=none;strokeColor=none;" parent="RkB0XEq5HXLJtmsmXvaN-15" vertex="1">
          <mxGeometry x="40" width="40" height="40" as="geometry" />
        </mxCell>
        <mxCell id="RkB0XEq5HXLJtmsmXvaN-20" value="2" style="ellipse;whiteSpace=wrap;html=1;fontFamily=Times New Roman;fontSize=19;fillColor=none;strokeColor=none;" parent="RkB0XEq5HXLJtmsmXvaN-15" vertex="1">
          <mxGeometry x="120" width="40" height="40" as="geometry" />
        </mxCell>
        <mxCell id="RkB0XEq5HXLJtmsmXvaN-21" value="8" style="ellipse;whiteSpace=wrap;html=1;fontFamily=Times New Roman;fontSize=19;fillColor=none;strokeColor=none;" parent="RkB0XEq5HXLJtmsmXvaN-15" vertex="1">
          <mxGeometry x="160" width="40" height="40" as="geometry" />
        </mxCell>
        <mxCell id="RkB0XEq5HXLJtmsmXvaN-22" value="" style="group" parent="1" vertex="1" connectable="0">
          <mxGeometry x="280" y="370" width="200" height="40" as="geometry" />
        </mxCell>
        <mxCell id="RkB0XEq5HXLJtmsmXvaN-23" value="" style="rounded=0;whiteSpace=wrap;html=1;" parent="RkB0XEq5HXLJtmsmXvaN-22" vertex="1">
          <mxGeometry width="200" height="40" as="geometry" />
        </mxCell>
        <mxCell id="RkB0XEq5HXLJtmsmXvaN-24" value="1" style="ellipse;whiteSpace=wrap;html=1;fontFamily=Times New Roman;fontSize=19;fillColor=none;strokeColor=none;" parent="RkB0XEq5HXLJtmsmXvaN-22" vertex="1">
          <mxGeometry width="40" height="40" as="geometry" />
        </mxCell>
        <mxCell id="RkB0XEq5HXLJtmsmXvaN-25" value="3" style="ellipse;whiteSpace=wrap;html=1;fontFamily=Times New Roman;fontSize=19;fillColor=none;strokeColor=none;" parent="RkB0XEq5HXLJtmsmXvaN-22" vertex="1">
          <mxGeometry x="40" width="40" height="40" as="geometry" />
        </mxCell>
        <mxCell id="RkB0XEq5HXLJtmsmXvaN-26" value="2" style="ellipse;whiteSpace=wrap;html=1;fontFamily=Times New Roman;fontSize=19;fillColor=none;strokeColor=none;" parent="RkB0XEq5HXLJtmsmXvaN-22" vertex="1">
          <mxGeometry x="80" width="40" height="40" as="geometry" />
        </mxCell>
        <mxCell id="RkB0XEq5HXLJtmsmXvaN-28" value="8" style="ellipse;whiteSpace=wrap;html=1;fontFamily=Times New Roman;fontSize=19;fillColor=none;strokeColor=none;" parent="RkB0XEq5HXLJtmsmXvaN-22" vertex="1">
          <mxGeometry x="160" width="40" height="40" as="geometry" />
        </mxCell>
        <mxCell id="RkB0XEq5HXLJtmsmXvaN-54" value="5" style="ellipse;whiteSpace=wrap;html=1;fontFamily=Times New Roman;fontSize=19;fillColor=none;strokeColor=none;" parent="RkB0XEq5HXLJtmsmXvaN-22" vertex="1">
          <mxGeometry x="120" width="40" height="40" as="geometry" />
        </mxCell>
        <mxCell id="RkB0XEq5HXLJtmsmXvaN-29" value="" style="endArrow=classic;html=1;rounded=0;entryX=0.5;entryY=0;entryDx=0;entryDy=0;" parent="1" target="RkB0XEq5HXLJtmsmXvaN-3" edge="1">
          <mxGeometry width="50" height="50" relative="1" as="geometry">
            <mxPoint x="300" y="140" as="sourcePoint" />
            <mxPoint x="330" y="90" as="targetPoint" />
          </mxGeometry>
        </mxCell>
        <mxCell id="RkB0XEq5HXLJtmsmXvaN-33" value="" style="endArrow=classic;html=1;rounded=0;entryX=0.5;entryY=0;entryDx=0;entryDy=0;" parent="1" target="RkB0XEq5HXLJtmsmXvaN-7" edge="1">
          <mxGeometry width="50" height="50" relative="1" as="geometry">
            <mxPoint x="460" y="140" as="sourcePoint" />
            <mxPoint x="540" y="300" as="targetPoint" />
          </mxGeometry>
        </mxCell>
        <mxCell id="RkB0XEq5HXLJtmsmXvaN-34" value="" style="endArrow=classic;html=1;rounded=0;entryX=0.5;entryY=0;entryDx=0;entryDy=0;" parent="1" target="RkB0XEq5HXLJtmsmXvaN-11" edge="1">
          <mxGeometry width="50" height="50" relative="1" as="geometry">
            <mxPoint x="340" y="210" as="sourcePoint" />
            <mxPoint x="470" y="230" as="targetPoint" />
          </mxGeometry>
        </mxCell>
        <mxCell id="RkB0XEq5HXLJtmsmXvaN-35" value="" style="endArrow=classic;html=1;rounded=0;entryX=0.5;entryY=0;entryDx=0;entryDy=0;" parent="1" edge="1">
          <mxGeometry width="50" height="50" relative="1" as="geometry">
            <mxPoint x="460" y="210" as="sourcePoint" />
            <mxPoint x="460" y="230" as="targetPoint" />
          </mxGeometry>
        </mxCell>
        <mxCell id="RkB0XEq5HXLJtmsmXvaN-36" value="" style="endArrow=classic;html=1;rounded=0;entryX=0.5;entryY=0;entryDx=0;entryDy=0;" parent="1" edge="1">
          <mxGeometry width="50" height="50" relative="1" as="geometry">
            <mxPoint x="380" y="280" as="sourcePoint" />
            <mxPoint x="380" y="299.9999999999999" as="targetPoint" />
          </mxGeometry>
        </mxCell>
        <mxCell id="RkB0XEq5HXLJtmsmXvaN-37" value="" style="endArrow=classic;html=1;rounded=0;entryX=0.5;entryY=0;entryDx=0;entryDy=0;" parent="1" target="RkB0XEq5HXLJtmsmXvaN-20" edge="1">
          <mxGeometry width="50" height="50" relative="1" as="geometry">
            <mxPoint x="420" y="280" as="sourcePoint" />
            <mxPoint x="470" y="230" as="targetPoint" />
          </mxGeometry>
        </mxCell>
        <mxCell id="RkB0XEq5HXLJtmsmXvaN-39" value="&lt;span style=&quot;font-size: 19px;&quot;&gt;k&lt;/span&gt;" style="text;html=1;strokeColor=none;fillColor=none;align=center;verticalAlign=middle;whiteSpace=wrap;rounded=0;fontSize=11;fontFamily=Times New Roman;fontColor=default;" parent="1" vertex="1">
          <mxGeometry x="490" y="110" width="60" height="30" as="geometry" />
        </mxCell>
        <mxCell id="RkB0XEq5HXLJtmsmXvaN-40" value="&lt;span style=&quot;font-size: 19px;&quot;&gt;low&lt;/span&gt;" style="text;html=1;strokeColor=none;fillColor=none;align=center;verticalAlign=middle;whiteSpace=wrap;rounded=0;fontSize=11;fontFamily=Times New Roman;fontColor=default;" parent="1" vertex="1">
          <mxGeometry x="270" y="110" width="60" height="30" as="geometry" />
        </mxCell>
        <mxCell id="RkB0XEq5HXLJtmsmXvaN-41" value="&lt;span style=&quot;font-size: 19px;&quot;&gt;high&lt;/span&gt;" style="text;html=1;strokeColor=none;fillColor=none;align=center;verticalAlign=middle;whiteSpace=wrap;rounded=0;fontSize=11;fontFamily=Times New Roman;fontColor=default;" parent="1" vertex="1">
          <mxGeometry x="430" y="110" width="60" height="30" as="geometry" />
        </mxCell>
        <mxCell id="RkB0XEq5HXLJtmsmXvaN-46" value="" style="group" parent="1" vertex="1" connectable="0">
          <mxGeometry x="500" y="160" width="40" height="40" as="geometry" />
        </mxCell>
        <mxCell id="RkB0XEq5HXLJtmsmXvaN-38" value="" style="rounded=0;whiteSpace=wrap;html=1;" parent="RkB0XEq5HXLJtmsmXvaN-46" vertex="1">
          <mxGeometry width="40" height="40" as="geometry" />
        </mxCell>
        <mxCell id="RkB0XEq5HXLJtmsmXvaN-47" value="" style="group" parent="1" vertex="1" connectable="0">
          <mxGeometry x="500" y="230" width="40" height="40" as="geometry" />
        </mxCell>
        <mxCell id="RkB0XEq5HXLJtmsmXvaN-48" value="" style="rounded=0;whiteSpace=wrap;html=1;" parent="RkB0XEq5HXLJtmsmXvaN-47" vertex="1">
          <mxGeometry width="40" height="40" as="geometry" />
        </mxCell>
        <mxCell id="RkB0XEq5HXLJtmsmXvaN-49" value="5" style="ellipse;whiteSpace=wrap;html=1;fontFamily=Times New Roman;fontSize=19;fillColor=none;strokeColor=none;" parent="RkB0XEq5HXLJtmsmXvaN-47" vertex="1">
          <mxGeometry width="40" height="40" as="geometry" />
        </mxCell>
        <mxCell id="RkB0XEq5HXLJtmsmXvaN-50" value="" style="group" parent="1" vertex="1" connectable="0">
          <mxGeometry x="500" y="300" width="40" height="40" as="geometry" />
        </mxCell>
        <mxCell id="RkB0XEq5HXLJtmsmXvaN-51" value="" style="rounded=0;whiteSpace=wrap;html=1;" parent="RkB0XEq5HXLJtmsmXvaN-50" vertex="1">
          <mxGeometry width="40" height="40" as="geometry" />
        </mxCell>
        <mxCell id="RkB0XEq5HXLJtmsmXvaN-52" value="5" style="ellipse;whiteSpace=wrap;html=1;fontFamily=Times New Roman;fontSize=19;fillColor=none;strokeColor=none;" parent="RkB0XEq5HXLJtmsmXvaN-50" vertex="1">
          <mxGeometry width="40" height="40" as="geometry" />
        </mxCell>
      </root>
    </mxGraphModel>
  </diagram>
</mxfile>
